HIERARCHY
ROOT pelvis
{
  OFFSET 0 100 0
  CHANNELS 6 Xposition Yposition Zposition Zrotation Xrotation Yrotation
  JOINT pelvis_right_femur
  {
    OFFSET -10.78128 -3.44521 -0.5502486
    CHANNELS 3 Zrotation Xrotation Yrotation
    JOINT right_femur_tibia
    {
      OFFSET -0.8047443 -44.0398 -0.1307829
      CHANNELS 3 Zrotation Xrotation Yrotation
      JOINT right_tibia_foot
      {
        OFFSET 3.006224 -47.83518 -5
        CHANNELS 3 Zrotation Xrotation Yrotation
        End Site
        {
          OFFSET 0 -5 15
        }
      }
    }
  }
  JOINT pelvis_left_femur
  {
    OFFSET 10.78128 -3.44521 -0.5502486
    CHANNELS 3 Zrotation Xrotation Yrotation
    JOINT left_femur_tibia
    {
      OFFSET 0.8047443 -44.0398 -0.1307829
      CHANNELS 3 Zrotation Xrotation Yrotation
      JOINT left_tibia_foot
      {
        OFFSET -4.370144 -48.10324 -4.275266
        CHANNELS 3 Zrotation Xrotation Yrotation
        End Site
        {
          OFFSET 0 -5 15
        }
      }
    }
  }
  JOINT pelvis_spine1
  {
    OFFSET 0 6.468898 -3.129235
    CHANNELS 3 Zrotation Xrotation Yrotation
    JOINT spine1
    {
      OFFSET 0 23.15396 4.99043
      CHANNELS 3 Zrotation Xrotation Yrotation
      JOINT spine2
      {
        OFFSET 0 20.79997 -5.064912
        CHANNELS 3 Zrotation Xrotation Yrotation
        JOINT neck
        {
          OFFSET 0 14.38658 9.616178
          CHANNELS 3 Zrotation Xrotation Yrotation
          End Site
          {
            OFFSET 0 20 0
          }
        }
      }
      JOINT right_manubrium
      {
        OFFSET -5.722621 16.35077 3.967754
        CHANNELS 3 Zrotation Xrotation Yrotation
        JOINT right_clavicle
        {
          OFFSET -13.16364 1.694482 -4.693211
          CHANNELS 3 Zrotation Xrotation Yrotation
          JOINT right_humerus
          {
            OFFSET -28.5034 -0.3100689 -2.792744
            CHANNELS 3 Zrotation Xrotation Yrotation
            JOINT right_radius
            {
              OFFSET -25.15693 0.02248979 -1.271978
              CHANNELS 3 Zrotation Xrotation Yrotation
              End Site
              {
                OFFSET -15 0 0
              }
            }
          }
        }
      }
      JOINT left_manubrium
      {
        OFFSET 5.722621 16.35077 3.967754
        CHANNELS 3 Zrotation Xrotation Yrotation
        JOINT left_clavicle
        {
          OFFSET 13.16364 1.694482 -4.693211
          CHANNELS 3 Zrotation Xrotation Yrotation
          JOINT left_humerus
          {
            OFFSET 29.39168 -1.063119 -2.237045
            CHANNELS 3 Zrotation Xrotation Yrotation
            JOINT left_radius
            {
              OFFSET 24.59957 -0.9528479 0.9047498
              CHANNELS 3 Zrotation Xrotation Yrotation
              End Site
              {
                OFFSET 15 -0 -0
              }
            }
          }
        }
      }
    }
  }
}
MOTION
Frames: 19
Frame Time: 0.0416666666667
0 103.5113 0 0.5414148 0.7045527 -0.2028374 5.206909 -18.73038 12.90919 -0 39.22204 -0 -4.809474 -18.65869 -3.811672 -7.33976 9.348238 -23.39619 -0 3.144456 -0 17.54146 -11.68539 31.53304 -3.656222 -4.865755 5.487176 3.196481 11.33339 -8.470949 1.528531 20.80215 6.49992 2.268405 -26.14005 10.38702 6.261198 -21.71735 12.07132 86.01003 38.1175 -18.78436 -0 0 17.77062 -5.680572 8.99851 4.326784 5.628531 -19.65137 -1.00684 -92.00989 20.08828 21.30509 0 0 -16.40125 16.60087 12.87147 -4.423037
0.3322826 103.1548 1.460119 0.4945053 1.001406 -0.3666095 5.419824 -19.64655 12.65759 -0 37.90341 -0 -4.818307 -18.01796 -3.713633 -7.355477 9.50629 -23.03102 -0 3.912732 -0 17.30379 -12.11913 31.10084 -3.658698 -4.693889 5.472031 3.276524 11.2317 -8.515394 1.524195 20.77722 6.489314 2.267976 -26.32412 10.35788 6.187591 -21.5434 12.03273 86.25547 38.22278 -19.12873 -0 0 17.28257 -5.548608 8.841442 4.333226 5.649921 -19.79867 -0.9773949 -91.75451 20.38535 20.99594 0 0 -17.21333 16.3712 12.67102 -4.031723
0.6864103 102.5883 3.551139 0.2347587 -0.3830753 -0.4012617 4.393964 -20.92415 7.799581 -0 35.25641 -0 -6.229938 -12.24632 -2.126421 -6.54085 9.593133 -20.88575 -0 6.130011 -0 12.74156 -14.33889 27.15533 -2.977195 -3.585286 4.64352 2.459044 11.14509 -7.710998 1.385796 21.43064 7.013961 3.399451 -24.661 9.63566 5.971803 -20.38457 11.93898 85.86751 35.66065 -18.40342 -0 0 16.01515 -10.02207 9.84611 5.287635 6.556713 -20.90824 -2.458604 -91.62838 19.27206 19.9114 0 0 -15.74589 16.41442 15.08933 -5.008737
1.025021 102.0426 5.915204 0.1746356 -0.1691087 -0.405578 4.493414 -22.2503 6.920096 -0 32.96101 -0 -6.428667 -10.65169 -1.755397 -6.480474 9.740781 -20.03024 -0 7.388898 -0 12.17291 -14.94548 26.20549 -2.910407 -3.317756 4.584389 2.471417 11.17495 -7.736887 1.345831 21.37191 7.050891 3.563351 -24.66663 9.458136 5.866561 -20.1202 11.9239 86.11479 35.51389 -18.78559 -0 0 15.37037 -10.4908 9.877275 5.383504 6.757138 -21.35807 -2.6485 -91.18968 19.01515 19.3258 0 0 -16.62129 16.55491 14.88327 -5.192365
1.357787 101.4414 8.606461 0.1639769 0.001295954 -0.3846304 4.585777 -23.63274 5.908072 -0 30.07033 -0 -6.662254 -8.63075 -1.245794 -6.467085 9.766983 -18.85059 -0 8.995839 -0 12.08367 -15.29152 25.33961 -2.857805 -3.130639 4.608811 2.485902 11.47686 -7.830209 1.264355 21.20693 7.089862 3.771828 -24.63691 9.193956 5.707859 -19.98116 11.98314 86.48431 35.28934 -19.30047 -0 0 14.67851 -11.23428 10.02368 5.530108 7.053157 -22.09241 -2.958785 -90.50596 17.95464 18.52533 0 0 -17.75768 17.40717 14.26372 -6.269506
1.697495 100.7624 11.64698 0.2269967 -0.111881 -0.3694328 4.532555 -24.57027 4.675697 -0 27.13814 -0 -7.000447 -6.311453 -0.6135267 -6.473728 9.592632 -17.42378 -0 10.81398 -0 12.44387 -15.22377 24.63359 -2.801815 -3.067244 4.689036 2.436453 12.09153 -7.942646 1.127662 21.00951 7.153088 4.047377 -24.42034 8.818962 5.47142 -20.00875 12.13263 86.93093 34.7747 -19.81632 -0 0 14.02426 -12.48557 10.32776 5.797766 7.431051 -23.10564 -3.471383 -89.6964 15.98813 17.59623 0 0 -18.84523 18.96929 13.37612 -8.317378
2.048395 100.0072 15.05498 0.3583925 -0.4762659 -0.3887206 4.372866 -25.05852 3.285341 -0 24.1426 -0 -7.428252 -3.850408 0.07755312 -6.498007 9.280738 -15.81234 -0 12.92943 -0 13.12862 -14.81828 24.04942 -2.747395 -3.114349 4.814455 2.340443 12.93862 -8.077859 0.9430879 20.80691 7.228414 4.359963 -24.04581 8.347618 5.140727 -20.16714 12.34723 87.48823 33.99079 -20.38157 -0 0 13.35771 -14.10228 10.71402 6.163128 7.835688 -24.34021 -4.149255 -88.83824 13.4273 16.59671 0 0 -19.99269 20.90082 12.24903 -10.91157
2.406484 99.18841 18.83419 0.5434529 -1.118946 -0.4762834 4.146206 -24.96457 1.828136 -0 21.19824 -0 -7.936864 -1.424054 0.7391644 -6.518786 8.847296 -14.08655 -0 15.4146 -0 14.03622 -14.06625 23.58747 -2.680876 -3.280821 4.976284 2.20363 13.97077 -8.235233 0.7239771 20.62793 7.298242 4.673751 -23.52591 7.797542 4.679105 -20.45877 12.60974 88.19147 32.87235 -21.00766 -0 0 12.6786 -16.02382 11.14439 6.635153 8.201349 -25.73842 -4.976638 -88.01763 10.51023 15.61604 0 0 -21.19356 22.91994 10.97235 -13.69443
2.756597 98.33451 22.98358 0.7478725 -2.012653 -0.6658858 3.925748 -24.28998 0.4100171 -0 18.34021 -0 -8.507325 0.8311473 1.282073 -6.506642 8.340968 -12.31606 -0 18.3495 -0 14.98583 -13.03448 23.19055 -2.58155 -3.548521 5.158419 2.03935 15.10306 -8.409618 0.4974994 20.49486 7.335457 4.946655 -22.90261 7.200398 4.05775 -20.85633 12.88756 89.06425 31.38591 -21.70017 -0 0 11.97649 -18.13507 11.57473 7.204612 8.461879 -27.21326 -5.91522 -87.29295 7.564187 14.72893 0 0 -22.45169 24.71464 9.706279 -16.24513
3.07279 97.48626 27.49434 0.9269256 -3.110923 -0.9897635 3.784593 -23.08115 -0.8552347 -0 15.64656 -0 -9.116953 2.800242 1.625824 -6.430101 7.801686 -10.57821 -0 21.76554 -0 15.79958 -11.80222 22.80532 -2.426757 -3.890561 5.344649 1.859685 16.24641 -8.589725 0.2975301 20.42227 7.309608 5.137407 -22.22723 6.596301 3.264926 -21.32843 13.1462 90.10063 29.52584 -22.42982 -0 0 11.26708 -20.3072 11.9741 7.851497 8.561064 -28.65963 -6.916578 -86.69786 4.897045 14.00754 0 0 -23.71463 26.04993 8.64976 -18.22048
3.320812 96.693 32.34798 1.033722 -4.334139 -1.473747 3.775712 -21.46166 -1.878114 -0 13.21263 -0 -9.740906 4.406233 1.723773 -6.266005 7.266298 -8.953584 -0 25.61294 -0 16.31367 -10.48096 22.37821 -2.201438 -4.264525 5.518249 1.675167 17.30521 -8.756949 0.1572453 20.4156 7.195792 5.216347 -21.55529 6.027995 2.322987 -21.82859 13.35205 91.25352 27.35395 -23.13736 -0 0 10.5849 -22.38632 12.31981 8.534187 8.469326 -29.96172 -7.918903 -86.24225 2.777083 13.50941 0 0 -24.89235 26.78034 7.985687 -19.38519
3.46314 96.00529 37.51261 1.031713 -5.585985 -2.132948 3.91748 -19.58956 -2.606931 -0 11.14738 -0 -10.35429 5.606719 1.57272 -6.006761 6.752774 -7.516134 -0 29.75665 -0 16.42682 -9.180044 21.87821 -1.904292 -4.624176 5.667431 1.493927 18.19957 -8.890882 0.09911959 20.4695 6.982868 5.172367 -20.93602 5.531513 1.288375 -22.30918 13.48276 92.44487 24.99787 -23.75121 -0 0 9.981506 -24.22067 12.60142 9.197793 8.190977 -31.01725 -8.856475 -85.92353 1.372416 13.27451 0 0 -25.87502 26.86601 7.813466 -19.65148
3.464986 95.46686 42.94255 0.9040365 -6.769598 -2.968167 4.19387 -17.62655 -3.035177 -0 9.536157 -0 -10.93444 6.394596 1.211673 -5.662252 6.25964 -6.319394 -0 34.0024 -0 16.11557 -7.986792 21.29823 -1.549046 -4.928514 5.787006 1.322239 18.87819 -8.975119 0.1289034 20.56981 6.677649 5.014971 -20.40498 5.129026 0.2395263 -22.72997 13.53203 93.58627 22.628 -24.21297 -0 0 9.508546 -25.68822 12.81905 9.786911 7.761895 -31.75971 -9.670426 -85.73505 0.7295304 13.31586 0 0 -26.57121 26.35506 8.12026 -19.06969
3.299358 95.10799 48.58194 0.6560249 -7.80799 -3.965371 4.567019 -15.7022 -3.192194 -0 8.413545 -0 -11.46294 6.793522 0.7046513 -5.254867 5.769317 -5.38585 -0 38.14621 -0 15.43045 -6.948961 20.65256 -1.159537 -5.151367 5.878807 1.165358 19.32662 -9.002542 0.2359836 20.69738 6.301811 4.768615 -19.98102 4.826318 -0.7457409 -23.06836 13.50931 94.60305 20.41144 -24.49499 -0 0 9.202307 -26.72311 12.98084 10.26196 7.234927 -32.17138 -10.32089 -85.67013 0.7814661 13.61844 0 0 -26.93728 25.35509 8.798861 -17.78982
2.949681 94.94283 54.37135 0.3101555 -8.655669 -5.098802 4.992861 -13.89824 -3.128434 -0 7.755703 -0 -11.92736 6.850942 0.1200624 -4.811372 5.257767 -4.705833 -0 42.0186 -0 14.46804 -6.076193 19.96715 -0.7620865 -5.283998 5.949378 1.027595 19.56264 -8.97598 0.3993157 20.83308 5.884219 4.463767 -19.66756 4.615544 -1.609361 -23.32132 13.43376 95.44799 18.47249 -24.60144 -0 0 9.075271 -27.32242 13.09881 10.60756 6.662837 -32.27899 -10.79304 -85.72086 1.387814 14.14545 0 0 -26.98463 24.00013 9.698123 -16.00721
2.409792 94.9707 60.25457 -0.102862 -9.299462 -6.336548 5.43285 -12.24979 -2.900411 -0 7.495044 -0 -12.32174 6.627935 -0.4846818 -4.355694 4.702718 -4.245563 -0 45.50685 -0 13.33854 -5.351846 19.27079 -0.3790728 -5.332075 6.007158 0.9118385 19.62449 -8.905249 0.5949523 20.96127 5.452847 4.128948 -19.45663 4.480749 -2.321152 -23.5014 13.327 96.10313 16.87544 -24.55728 -0 0 9.118753 -27.53379 13.18563 10.83114 6.086621 -32.1376 -11.0951 -85.87604 2.381872 14.85019 0 0 -26.76483 22.42339 10.67266 -13.91539
1.68214 95.17989 66.18323 -0.5522627 -9.75075 -7.646175 5.85896 -10.75783 -2.560671 -0 7.543886 -0 -12.64562 6.188627 -1.069058 -3.905186 4.088131 -3.959311 -0 48.55327 -0 12.14098 -4.747804 18.58898 -0.02596541 -5.309588 6.060127 0.8190607 19.55766 -8.802766 0.8016254 21.07126 5.029816 3.786541 -19.33349 4.403305 -2.875743 -23.62934 13.20786 96.57278 15.63092 -24.3945 -0 0 9.311509 -27.43288 13.25282 10.95468 5.532369 -31.81201 -11.25058 -86.12088 3.60724 15.68657 0 0 -26.34623 20.73999 11.61192 -11.67803
0.7753463 95.55181 72.11866 -1.012223 -10.03511 -8.998645 6.253686 -9.40357 -2.152939 -0 7.814703 -0 -12.90232 5.591907 -1.608498 -3.470072 3.404758 -3.799972 -0 51.14036 -0 10.95169 -4.235209 17.94132 0.2886406 -5.23327 6.114587 0.7483256 19.40528 -8.680166 1.003268 21.15698 4.629922 3.451924 -19.28067 4.365616 -3.28428 -23.72764 13.0902 96.87427 14.71338 -24.14259 -0 0 9.628564 -27.10242 13.31015 11.00582 5.01371 -31.3631 -11.28947 -86.4386 4.936596 16.61545 0 0 -25.79482 19.03958 12.44716 -9.419156
-0.2981006 96.06433 78.03182 -1.463671 -10.18352 -10.3701 6.607719 -8.159613 -1.711063 -0 8.231827 -0 -13.09722 4.886742 -2.090547 -3.054663 2.6487 -3.725587 -0 53.27373 -0 9.822651 -3.789942 17.34117 0.5614861 -5.118993 6.17484 0.6972334 19.20311 -8.546589 1.189215 21.21591 4.261444 3.134416 -19.28066 4.352946 -3.566171 -23.81659 12.98292 97.03024 14.07886 -23.82417 -0 0 10.04699 -26.61862 13.36567 11.01159 4.535996 -30.84098 -11.24157 -86.81246 6.276231 17.6066 0 0 -25.16423 17.38598 13.14514 -7.224712
